HIERARCHY
ROOT hip
{
	OFFSET 0.000000 0.000000 0.000000 
	CHANNELS 6 Xposition Yposition Zposition Xrotation Zrotation Yrotation
	JOINT abdomen
	{
		OFFSET 0.000000 3.402643 0.000000 
		CHANNELS 3 Xrotation Zrotation Yrotation
		JOINT chest
		{
			OFFSET 0.000000 8.438565 -0.680529 
			CHANNELS 3 Xrotation Zrotation Yrotation
			JOINT neck
			{
				OFFSET 0.000000 10.207942 -0.272212 
				CHANNELS 3 Xrotation Zrotation Yrotation
				JOINT head
				{
					OFFSET 0.000000 3.130431 0.000000 
					CHANNELS 3 Xrotation Zrotation Yrotation
					End Site
					{
						OFFSET 0.000000 3.130435 0.000000 
					}
				}
			}
			JOINT lCollar
			{
				OFFSET 3.470700 6.669187 -0.816635 
				CHANNELS 3 Yrotation Zrotation Xrotation
				JOINT lShldr
				{
					OFFSET 3.198488 0.000000 0.000000 
					CHANNELS 3 Zrotation Yrotation Xrotation
					JOINT lForeArm
					{
						OFFSET 10.139888 0.000000 0.000000 
						CHANNELS 3 Yrotation Zrotation Xrotation
						JOINT lHand
						{
							OFFSET 8.370511 0.000000 0.000000 
							CHANNELS 3 Zrotation Yrotation Xrotation
							End Site
							{
								OFFSET 4.083176 0.000000 0.000000 
							}
						}
					}
				}
			}
			JOINT rCollar
			{
				OFFSET -3.470700 6.669187 -0.816635 
				CHANNELS 3 Yrotation Zrotation Xrotation
				JOINT rShldr
				{
					OFFSET -3.198488 0.000000 0.000000 
					CHANNELS 3 Zrotation Yrotation Xrotation
					JOINT rForeArm
					{
						OFFSET -10.139888 0.000000 0.000000 
						CHANNELS 3 Yrotation Zrotation Xrotation
						JOINT rHand
						{
							OFFSET -8.370511 0.000000 0.000000 
							CHANNELS 3 Zrotation Yrotation Xrotation
							End Site
							{
								OFFSET -4.083176 0.000000 0.000000 
							}
						}
					}
				}
			}
		}
	}
	JOINT lThigh
	{
		OFFSET 5.308129 -1.633274 1.361059 
		CHANNELS 3 Xrotation Zrotation Yrotation
		JOINT lShin
		{
			OFFSET -2.041588 -20.007561 0.000000 
			CHANNELS 3 Xrotation Zrotation Yrotation
			JOINT lFoot
			{
				OFFSET 0.000000 -19.190928 -1.224953 
				CHANNELS 3 Xrotation Yrotation Zrotation
				End Site
				{
					OFFSET 0.000000 -2.449906 4.627600 
				}
			}
		}
	}
	JOINT rThigh
	{
		OFFSET -5.308129 -1.633274 1.361059 
		CHANNELS 3 Xrotation Zrotation Yrotation
		JOINT rShin
		{
			OFFSET 2.041588 -20.007561 0.000000 
			CHANNELS 3 Xrotation Zrotation Yrotation
			JOINT rFoot
			{
				OFFSET 0.000000 -19.190928 -1.224953 
				CHANNELS 3 Xrotation Yrotation Zrotation
				End Site
				{
					OFFSET 0.000000 -2.449906 4.627600 
				}
			}
		}
	}
}
MOTION
Frames: 6
Frame Time: 0.016667
-30.238079 34.117344 0.748399 124.189003 33.476601 160.791000 -4.414820 -17.601700 -12.363200 -10.943000 18.715900 -9.514860 14.601800 -21.494699 -2.476340 -0.796395 0.763460 -0.113269 2.000000 -2.000000 0.000000 154.703995 -19.303400 -114.185997 0.000000 35.351601 -0.005657 0.132952 -0.137980 163.772003 -2.000000 2.000000 0.000000 -21.965099 -37.329399 -127.287003 0.000000 37.285198 -0.005919 179.882996 179.871002 -5.027120 -15.698030 -78.765617 12.527979 -4.735605 73.943512 -0.907182 -2.063818 17.086216 -34.614742 24.770706 -44.863926 21.571520 24.938740 79.243408 19.567287 174.045395 174.074219 150.071899 
-30.453207 33.988941 0.211967 123.476997 34.755901 167.772995 -4.445940 -18.193501 -13.358900 -12.612700 18.660900 -10.549400 15.634700 -21.106701 -2.416520 -0.552599 0.782690 0.001491 2.000000 -2.000000 0.000000 154.306000 -18.055000 -111.251999 0.000000 36.210899 -0.005776 0.132177 -0.137517 164.093994 -2.000000 2.000000 0.000000 -21.666300 -41.064400 -128.304001 0.000000 36.933601 -0.005871 179.888000 179.876007 -2.536870 -8.540295 -75.452896 9.236170 -4.665150 72.796288 -0.900189 -1.957541 17.065193 -36.812004 29.574039 -44.317047 22.571465 35.108849 84.665977 30.319599 -5.386518 5.647975 -29.783430 
-30.516228 33.798977 -0.380133 -58.398399 144.063004 -6.044920 -4.372750 -18.432800 -14.289700 -13.141500 18.925301 -11.159700 17.694700 -21.322500 -2.892760 -0.191580 0.909062 -0.070844 2.000000 -2.000000 0.000000 153.636002 -17.619101 -112.407997 0.000000 37.314499 -0.005927 0.120463 -0.129757 169.113007 -2.000000 2.000000 0.000000 -21.160299 -45.164902 -129.675003 0.000000 36.601601 -0.005826 179.901993 179.880997 0.011969 -5.760391 -72.292610 9.660780 -4.581489 71.875275 -0.890923 -1.911662 16.558035 -38.690769 31.804947 -42.785912 25.915270 -64.777206 92.164825 -69.241714 -4.813954 4.869591 -30.283041 
-30.435122 33.543297 -0.946451 -61.269501 142.705002 -0.947266 -4.280040 -18.292400 -15.132100 -12.799400 19.548401 -11.442000 19.150499 -20.175699 -3.086230 0.287094 1.240080 -0.213078 2.000000 -2.000000 0.000000 152.177994 -18.732700 -114.043999 0.000000 38.408199 -0.006074 -179.888000 -179.876999 -7.068150 -2.000000 2.000000 0.000000 -20.356501 -49.023300 -131.867996 0.000000 35.947300 -0.005736 179.908005 179.886993 3.039300 -5.030087 -69.372566 11.035644 -4.454275 71.142418 -0.826341 -1.975155 15.482835 -39.814499 31.820406 -40.492699 31.295408 -10.787514 95.781158 -15.051237 -4.247876 2.921333 -31.055084 
-30.252911 33.225266 -1.410980 -64.423798 141.201004 3.258070 -4.335260 -18.445801 -16.151800 -12.721000 19.857800 -11.873900 20.174801 -18.051800 -2.767920 0.532728 1.874220 -0.195925 2.000000 -2.000000 0.000000 151.156006 -21.909599 -115.128998 0.000000 38.974602 -0.006149 -179.899994 -179.878998 -5.915810 -2.000000 2.000000 0.000000 -19.343700 -51.818298 -133.496002 0.000000 35.156300 -0.005626 179.912994 179.893997 6.105710 -4.923572 -66.654831 12.392587 -4.373178 70.644035 -0.780033 -2.043601 14.189325 -40.929440 30.615810 -37.576817 38.138699 -2.379264 99.682098 -6.540076 -3.859224 -0.622159 -31.832350 
-29.994307 32.865784 -1.749376 -67.500000 139.755997 7.216800 -4.495140 -19.114201 -17.559500 -13.366000 19.848700 -12.700600 20.413500 -15.021500 -1.911970 0.798374 2.537520 -0.011408 2.000000 -2.000000 0.000000 -28.511200 -153.537994 62.750099 0.000000 38.203098 -0.006047 -179.908005 -179.886002 -2.312290 -2.000000 2.000000 0.000000 -18.637400 -53.665401 -133.832001 0.000000 34.355499 -0.005514 -0.091758 0.089958 -171.022995 -4.295165 -64.420036 13.229012 -4.357540 70.124146 -0.800012 -2.174142 12.652399 -41.979599 29.567888 -33.873638 44.989872 0.453525 102.761848 -3.676199 -3.761753 -5.876727 -32.352951 
